<?xml version="1.0" encoding="utf-8"?>
<svg viewBox="35.046 46.85 220.547 135.54" xmlns="http://www.w3.org/2000/svg">
  <line style="fill: none; stroke: rgb(1, 1, 1);" x1="40.39205201012257" y1="46.85027523344942" x2="39.80693863429585" y2="182.39055258868999"/>
  <line style="fill: none; stroke: rgb(0, 0, 0);" x1="35.046368304212706" y1="170.6580679494603" x2="251.09604856428683" y2="170.4355600459769"/>
  <path d="M 42.52922668802486 159.29704145523857 C 54.15439972900246 159.72607688316074 64.63770520982092 159.47351197235446 75.88893127441406 158.2366943359375 C 79.64778667103806 157.82349326606337 84.01477928636307 159.44352410673454 87.64339447021484 158.23394775390625 C 92.39750720791477 156.6491937761925 98.44177232180851 160.49075430834634 103.30684661865234 158.01693725585938 C 105.0897209099159 157.11037251397462 108.04079262645838 160.36887611855283 110.4380874633789 159.76953125 C 118.83373208738308 157.67054599124316 131.938515519125 159.759934735118 139.8091278076172 155.82481384277344 C 150.8502112094302 150.30453201767077 171.90907571454915 134.16486479821666 177.95962524414062 123.44305419921875 C 181.87395765776157 116.5067039462202 181.31002860832334 109.1318145498756 186.77752685546875 103.6645736694336 C 189.60645618636278 100.83577750222489 202.04634332689466 102.37646072915301 206.10275268554688 103.04649353027344 C 216.20789536151173 104.71564879894878 226.51245216270965 102.9625635324481 236.36383056640625 101.34883880615234 C 242.39844657678117 100.36032647106754 250.063449197057 102.70586395263672 255.59291076660156 102.70586395263672" style="fill: none; stroke: rgb(153, 59, 59);"/>
</svg>