<?xml version="1.0" encoding="utf-8"?>
<svg viewBox="35.046 46.85 216.05 135.54" xmlns="http://www.w3.org/2000/svg">
  <line style="stroke: rgb(0, 0, 0);" x1="40.39205201012257" y1="46.85027523344942" x2="39.80693863429585" y2="182.39055258868999"/>
  <line style="stroke: rgb(0, 0, 0);" x1="35.046368304212706" y1="170.6580679494603" x2="251.09604856428683" y2="170.4355600459769"/>
  <path d="M 44.515315752450775 156.42366778803316 C 63.334800457761716 150.15052832564413 82.37581276074363 137.7498545810518 91.66776275634766 119.16595458984375 C 94.69979211188465 113.10189587876978 93.27921893697656 104.34488441864445 96.17560577392578 98.55238342285156 C 96.84830033571461 97.20705762958475 98.76878356933594 93.38296960441531 98.76878356933594 92.23151397705078 C 98.76878356933594 91.27555592854817 98.76878356933594 94.14343007405598 98.76878356933594 95.0993881225586 C 98.76878356933594 96.97144026307214 98.60945892333984 98.99237945770825 98.60945892333984 100.92305755615234 C 98.60945892333984 106.57732137044272 98.60945892333984 112.23158518473305 98.60945892333984 117.88584899902344 C 98.60945892333984 131.15607077467874 100.06468709380933 144.06485846650835 100.99935913085938 157.25875854492188 C 101.1361055639085 159.18908137711443 99.86016633811218 168.44066235543298 101.36746215820312 169.9224853515625 C 101.61388770418529 170.1647463835397 105.7000707275218 166.62166823304145 106.22966766357422 166.3568572998047 C 112.29144688717223 163.32582501090678 117.31423667848013 157.67187208680213 122.68426513671875 154.9869842529297 C 127.77177584337014 152.44334864518387 135.9427114199394 154.6954858132652 140.59202575683594 151.33619689941406 C 151.61083975385404 143.3747262347571 162.08211639454453 133.63779069797664 170.27622985839844 122.71234893798828 C 173.9689824354177 117.78869814986561 176.95156440603668 108.90541775624092 179.80287170410156 103.20307159423828 C 181.44297570073502 99.92301800729754 181.2543693238405 92.09295852917037 183.85470581054688 89.49274444580078 C 184.19118192413399 89.1562841708558 185.97067653145552 96.02890640026679 186.07154846191406 96.3300552368164 C 187.56589371096382 100.79135910112312 188.38141491791598 105.4256052181117 189.00535583496094 110.08708190917969 C 190.90728345419188 124.2964261322396 192.3704376220703 138.23466899884573 192.3704376220703 152.58059692382812 C 192.3704376220703 154.04729386339108 191.2749988139721 165.64993293323775 192.69459533691406 166.11512756347656 C 202.81617265507424 169.43191746952485 207.26411397229222 159.69775240517959 213.48947143554688 156.18467712402344 C 221.94201587330352 151.41476228741706 230.88822421949385 144.76942882301387 235.9325408935547 137.2028350830078 C 239.1059421094788 132.44265856625304 247.15408325195312 131.18220781740604 247.15408325195312 124.57207489013672" style="fill: none; stroke: rgb(217, 36, 45);"/>
</svg>