<?xml version="1.0" encoding="utf-8"?>
<svg viewBox="35.046 46.85 217.964 135.54" xmlns="http://www.w3.org/2000/svg">
  <line style="stroke: rgb(0, 0, 0);" x1="40.39205201012257" y1="46.85027523344942" x2="39.80693863429585" y2="182.39055258868999"/>
  <line style="stroke: rgb(0, 0, 0);" x1="35.046368304212706" y1="170.6580679494603" x2="251.09604856428683" y2="170.4355600459769"/>
  <path d="M 42.96874847268343 166.59585009172494 C 56.326300489838175 166.59585571289062 70.54740699329197 166.807373046875 83.12455749511719 166.807373046875 C 85.20365168146253 166.807373046875 94.28836226487964 168.568167614274 95.8954086303711 166.96119689941406 C 96.95151173948071 165.9051435056511 95.38294491699017 156.96597769076902 95.13174438476562 155.67373657226562 C 93.2685093480197 146.08876910982795 96.96674346923828 135.61346835190648 96.96674346923828 126.02249908447266 C 96.96674346923828 124.77647618311045 98.35124206542969 128.24869755762217 98.35124206542969 129.49472045898438 C 98.35124206542969 132.00289671486948 99.10380943774695 134.77414976533672 99.4720230102539 137.28524780273438 C 100.40989251247291 143.68121590983804 100.10915490233639 152.22318847692395 103.9139404296875 157.8658447265625 C 105.91995847847213 160.84085348815825 110.1465018408491 160.04907959897372 113.02027893066406 161.46168518066406 C 122.29182552458937 166.01911537102174 132.64056348831653 163.52987010405704 142.42428588867188 166.73594665527344 C 151.57245788971179 169.73375654182163 165.34746034591035 166.5711212158203 174.9708709716797 166.5711212158203 C 175.86468323978636 166.5711212158203 184.1301475830718 167.4549883767298 184.8546142578125 166.73045349121094 C 185.26358791894398 166.32144132394433 184.65133666992188 160.0490105158552 184.65133666992188 159.4838409423828 C 184.65133666992188 152.44868902641693 185.1018524169922 145.53396752240675 185.1018524169922 138.46920776367188 C 185.1018524169922 135.9269251457899 184.94252014160156 133.22888068503943 184.94252014160156 130.78855895996094 C 184.94252014160156 129.4919687906901 184.01786979441823 125.98985071913066 184.94252014160156 126.89878845214844 C 192.64025577773396 134.46571621007314 185.35375476871675 156.17912891864398 194.89768981933594 162.4341278076172 C 202.12542253183784 167.17111101702844 228.44946528212716 167.76781324556944 236.62203979492188 165.04379272460938 C 240.49326238941362 163.7534661852685 246.81053610974894 166.14955677422708 250.40655517578125 164.35154724121094 C 253.86414426333639 162.62275269743336 252.88160705566406 148.36383888262853 252.88160705566406 144.61427307128906" style="fill: none; stroke: rgb(212, 38, 47);"/>
</svg>