<?xml version="1.0" encoding="utf-8"?>
<svg viewBox="35.046 46.85 218.651 135.54" xmlns="http://www.w3.org/2000/svg">
  <line style="stroke: rgb(0, 0, 0);" x1="40.39205201012257" y1="46.85027523344942" x2="39.80693863429585" y2="182.39055258868999"/>
  <line style="stroke: rgb(0, 0, 0);" x1="35.046368304212706" y1="170.6580679494603" x2="251.09604856428683" y2="170.4355600459769"/>
  <path d="M 42.95501341691285 93.66545096109763 C 52.69887506411153 93.66545104980469 61.89118236781826 94.44560241699219 71.60359191894531 94.44560241699219 C 74.50986407243948 94.44560241699219 79.07254402256208 91.85517343567568 81.52030181884766 92.4567642211914 C 89.54828173826414 94.42981839883717 101.16217813693615 94.45657846400906 108.88602447509766 93.55282592773438 C 116.19852803244419 92.69720382611155 131.76397883308323 89.7420574060331 138.44386291503906 93.02539825439453 C 142.40098134403496 94.970427302851 145.15728983423926 104.74704895810902 147.7534942626953 108.26856231689453 C 155.33340965231017 118.55002282532865 165.9100573744302 129.07829581979837 171.6607208251953 140.47726440429688 C 174.0643119038333 145.2416641000798 179.74922147207795 158.02702781591827 185.36007690429688 159.8656768798828 C 193.47012960790448 162.52330030153888 204.5422379903034 158.43908399560155 212.14892578125 160.9315185546875 C 224.5875223121703 165.00719363327966 240.65678223232499 162.0632781982422 253.6974639892578 162.0632781982422" style="fill: none; stroke: rgb(186, 35, 35);"/>
</svg>